<svg xmlns="http://www.w3.org/2000/svg" viewBox="0 0 60.13 60.13"><defs><style>.cls-1,.cls-3{fill:none;}.cls-1{stroke:#39807b;stroke-width:2px;}.cls-2{fill:#39807b;}</style></defs><g id="Layer_2" data-name="Layer 2"><g id="Layer_1-2" data-name="Layer 1"><circle class="cls-1" cx="30.06" cy="30.06" r="29.06"/><path class="cls-2" d="M24.41,36.84v-.75h0s0-.33,0-.73,0-2.19,0-3.65a2.11,2.11,0,0,0-2-2.17,2.07,2.07,0,0,0-2,2.17c0,2.9,0,5.8,0,7.24v1.62a1.35,1.35,0,0,0,.21.81,2,2,0,0,0,3.79-.79c0-1.5,0-3,0-3.75m8-.78V31.82a2.12,2.12,0,0,0-2-2.28,2.14,2.14,0,0,0-2,2.24c0,1.87,0,5.7,0,8.55a2.14,2.14,0,0,0,2,2.22,2.1,2.1,0,0,0,2-2.24c0-1.42,0-2.83,0-4.25m7.87,0c0-.94,0-2.87,0-4.3a2,2,0,1,0-4,0c0,1.89,0,5.74,0,8.61a2.19,2.19,0,0,0,2,2.24,2.13,2.13,0,0,0,2-2.26c0-1.42,0-2.83,0-4.25M23.74,24.5a6.82,6.82,0,0,1,2.09-.18h7.88a5.36,5.36,0,0,1,2.13.25c.11.19.47.74.81,1.22a2.09,2.09,0,0,0,2.83.65,2,2,0,0,0,.89-1.69c0-.23.23-.41.53-.41s1.62,0,2.7,0a2.11,2.11,0,0,1,2.18,2.21,2.39,2.39,0,0,1-.09,1.38,2,2,0,0,1-1.81,1.48,1,1,0,0,0-1,1c0,.79,0,2.4.09,3.6a41.69,41.69,0,0,1-.3,9.74c.2.75-.54,1.43-1.66,1.54-.45,0-1.35.09-2,.09H20.45c-1.48.35-2.85-.9-3.07-2.8,0-1.61.05-4.9.2-7.34a14.19,14.19,0,0,0,.07-4.17,2.68,2.68,0,0,0-.24-1,1,1,0,0,0-1-.71,2.11,2.11,0,0,1-2.06-2.13c0-.21,0-.63,0-.95a2.08,2.08,0,0,1,2-2c1,0,1.91,0,2.38,0a.58.58,0,0,1,.49.64,1.65,1.65,0,0,0,1.36,1.65c.75.39,1.9-.15,2.57-1.21.23-.37.48-.73.61-.92"/><path class="cls-2" d="M23.86,24.32c-.17.24-.5.73-.73,1.1a2.26,2.26,0,0,1-2.57,1.21A1.8,1.8,0,0,1,19.21,25a3.54,3.54,0,0,1,0-.83,4.46,4.46,0,0,1,.46-.89c1-1.61,3.07-4.9,4.6-7.36a2,2,0,0,1,.75-.84,2.07,2.07,0,0,1,2.48.12,2.11,2.11,0,0,1,.31,2.68L24.2,23.72c-.08.13-.23.4-.34.6"/><path class="cls-2" d="M40.3,24.16a2.58,2.58,0,0,1,.07.6c.25.43-.15,1.18-.89,1.68a2.09,2.09,0,0,1-2.83-.65l-1-1.47c-.84-1.37-2.57-4.17-3.86-6.24a2,2,0,0,1-.43-1.49,1.9,1.9,0,0,1,1.38-1.78,2.06,2.06,0,0,1,2.28.84c.34.52,1,1.6,1.52,2.4l3.29,5.26a4.35,4.35,0,0,1,.44.85"/><rect class="cls-3" x="0.16" y="0.16" width="59.81" height="59.81"/></g></g></svg>