<?xml version="1.0" encoding="utf-8"?>
<!-- Generator: Adobe Illustrator 26.3.1, SVG Export Plug-In . SVG Version: 6.00 Build 0)  -->
<svg version="1.1" id="Layer_1" xmlns="http://www.w3.org/2000/svg" xmlns:xlink="http://www.w3.org/1999/xlink" x="0px" y="0px"
	 viewBox="0 0 60.1 60.1" style="enable-background:new 0 0 60.1 60.1;" xml:space="preserve">
<style type="text/css">
	.st0{fill:#FFFEFA;stroke:#39807B;stroke-width:2;}
	.st1{fill:#39807B;}
	.st2{fill:none;}
</style>
<g id="Layer_2_00000153664376937481748290000004601695140640694932_">
	<g id="Layer_1-2">
		<circle class="st0" cx="30.1" cy="30.1" r="29.1"/>
		<path class="st1" d="M24.4,36.8v-0.8l0,0c0,0,0-0.3,0-0.7s0-2.2,0-3.6c0-1.1-0.9-2.1-2-2.2c-1.1,0-2,1-2,2.1c0,0,0,0,0,0
			c0,2.9,0,5.8,0,7.2v1.6c0,0.3,0.1,0.6,0.2,0.8c0.5,1,1.7,1.4,2.7,0.9c0.7-0.3,1.1-1,1.1-1.7C24.4,39.1,24.4,37.6,24.4,36.8
			 M32.4,36.1v-4.2c0.1-1.2-0.8-2.2-2-2.3c0,0,0,0,0,0c-1.2,0.1-2.1,1.1-2,2.2c0,1.9,0,5.7,0,8.5c0,1.2,0.8,2.1,2,2.2
			c1.2-0.1,2.1-1,2-2.2c0,0,0,0,0,0C32.4,38.9,32.4,37.5,32.4,36.1 M40.3,36.1c0-0.9,0-2.9,0-4.3c0-1.1-0.9-2-2-2s-2,0.9-2,2
			c0,1.9,0,5.7,0,8.6c0,1.2,0.8,2.1,2,2.2c1.2-0.1,2.1-1.1,2-2.3c0,0,0,0,0,0C40.3,38.9,40.3,37.5,40.3,36.1 M23.7,24.5
			c0.7-0.2,1.4-0.2,2.1-0.2h7.9c0.7-0.1,1.4,0,2.1,0.2c0.1,0.2,0.5,0.7,0.8,1.2c0.6,0.9,1.9,1.2,2.8,0.6c0.6-0.4,0.9-1,0.9-1.7
			c0-0.2,0.2-0.4,0.5-0.4s1.6,0,2.7,0c1.2,0,2.1,0.9,2.2,2c0,0.1,0,0.1,0,0.2c0.1,0.5,0.1,0.9-0.1,1.4c-0.2,0.8-1,1.4-1.8,1.5
			c-0.6,0-1,0.4-1,1c0,0.8,0,2.4,0.1,3.6c0.3,3.2,0.2,6.5-0.3,9.7c0.2,0.8-0.5,1.4-1.7,1.5c-0.5,0-1.3,0.1-2,0.1H20.5
			c-1.5,0.3-2.9-0.9-3.1-2.8c0-1.6,0-4.9,0.2-7.3c0.2-1.4,0.3-2.8,0.1-4.2c0-0.3-0.1-0.7-0.2-1c-0.1-0.4-0.5-0.7-1-0.7
			c-1.2,0-2.1-1-2.1-2.1c0-0.2,0-0.6,0-1c0-1.1,0.9-2,2-2c1,0,1.9,0,2.4,0c0.3,0,0.5,0.3,0.5,0.6c0,0.8,0.6,1.5,1.4,1.6
			c0.8,0.4,1.9-0.1,2.6-1.2C23.4,25,23.6,24.6,23.7,24.5"/>
		<path class="st1" d="M23.9,24.3c-0.2,0.2-0.5,0.7-0.7,1.1c-0.5,1-1.5,1.5-2.6,1.2c-0.8-0.2-1.3-0.9-1.4-1.6c0-0.3,0-0.6,0-0.8
			c0.1-0.3,0.3-0.6,0.5-0.9c1-1.6,3.1-4.9,4.6-7.4c0.2-0.3,0.4-0.6,0.8-0.8c0.8-0.5,1.8-0.5,2.5,0.1c0.7,0.7,0.9,1.8,0.3,2.7
			l-3.6,5.8C24.1,23.8,24,24.1,23.9,24.3"/>
		<path class="st1" d="M40.3,24.2c0,0.2,0.1,0.4,0.1,0.6c0.2,0.4-0.2,1.2-0.9,1.7c-1,0.6-2.2,0.3-2.8-0.6l-1-1.5
			c-0.8-1.4-2.6-4.2-3.9-6.2c-0.3-0.4-0.5-1-0.4-1.5c0-0.8,0.6-1.6,1.4-1.8c0.9-0.2,1.8,0.1,2.3,0.8c0.3,0.5,1,1.6,1.5,2.4l3.3,5.3
			C40,23.6,40.2,23.9,40.3,24.2"/>
		<rect x="0.2" y="0.2" class="st2" width="59.8" height="59.8"/>
	</g>
</g>
</svg>
