<?xml version="1.0" encoding="UTF-8"?><svg xmlns="http://www.w3.org/2000/svg" xmlns:xlink="http://www.w3.org/1999/xlink" viewBox="0 0 41.83 42.24"><defs><style>.e{fill:none;}.f{clip-path:url(#d);}</style><clipPath id="d"><rect class="e" width="41.83" height="42.24"/></clipPath></defs><g id="a"/><g id="b"><g id="c"><g class="f"><path d="M21.02,.02c4.14,0,8.27,0,12.4,0,1.55,0,3.02,.26,4.37,1.06,2.27,1.36,3.59,3.36,3.96,5.99,.06,.41,.07,.83,.07,1.24,0,8.24,0,16.48,0,24.71,0,.66,.02,1.32-.07,1.97-.14,.99-.39,1.94-.85,2.86-1.13,2.26-2.94,3.56-5.31,4.19-.56,.15-1.13,.19-1.71,.19-2.35,0-4.7,0-7.06,.01-.27,0-.32-.09-.32-.33,0-4.68,0-9.36,0-14.03,0-.28,.08-.32,.33-.32,1.77,.01,3.55,0,5.32,.01,.27,0,.32-.08,.32-.33-.01-1.64-.01-3.28,0-4.92,0-.28-.05-.37-.35-.36-1.76,.02-3.53,0-5.29,.01-.28,0-.34-.09-.33-.35,.03-1.05-.06-2.1,.12-3.14,.12-.69,.36-1.33,.97-1.71,.6-.38,1.27-.59,1.98-.59,.86,0,1.72,0,2.59,0,.22,0,.3-.04,.3-.29-.01-1.68,0-3.36,0-5.04,0-.14,.04-.29-.21-.29-1.41,.03-2.82-.06-4.23,.07-1.59,.15-3.12,.53-4.39,1.58-1.48,1.22-2.31,2.84-2.66,4.72-.29,1.52-.28,3.05-.28,4.58q0,.45-.44,.45c-1.1,0-2.19,0-3.29,0-.23,0-.32,.04-.32,.3,.01,1.67,.01,3.34,0,5.01,0,.23,.06,.3,.29,.3,1.17-.01,2.33,0,3.5,0,.2,0,.26,.05,.26,.26,0,4.72,0,9.44,0,14.15,0,.2-.05,.27-.26,.27-4.17,0-8.35,.01-12.52,0-2.11-.01-3.94-.79-5.47-2.26C.86,38.43,0,36.53,0,34.28,0,25.99,0,17.71,0,9.42,0,8.34-.02,7.26,.24,6.2c.36-1.49,1.05-2.79,2.14-3.86C3.81,.93,5.52,.15,7.53,.07c2.98-.12,5.96-.04,8.94-.05,1.52,0,3.04,0,4.56,0h0Z"/></g></g></g></svg>