<svg xmlns="http://www.w3.org/2000/svg" viewBox="0 0 33.8 28.35"><defs><style>.cls-1{fill:#fffefa;}.cls-2{fill:#fdfdfe;}</style></defs><g id="Layer_2" data-name="Layer 2"><g id="Layer_1-2" data-name="Layer 1"><path d="M23.93,5c.16,0,.33,0,2-.06l2.14,0a10.66,10.66,0,0,1,3.16.37,3.72,3.72,0,0,1,1.84,1.26,3.4,3.4,0,0,1,.69,2.15,4.15,4.15,0,0,1-.44,1.88,4.53,4.53,0,0,1-1.28,1.59,6.65,6.65,0,0,1-1.85,1.05c-.19.08-.89.28-2.09.6a9.83,9.83,0,0,1,2.95.69,3.12,3.12,0,0,1,1.47,1.35,4.28,4.28,0,0,1,.49,2,4.62,4.62,0,0,1-.63,2.4,6.23,6.23,0,0,1-1.56,1.82,7.77,7.77,0,0,1-2.09,1.16,9.68,9.68,0,0,1-3.51.63c-.58,0-1.32,0-2.22-.08m-.84-1.48a22.57,22.57,0,0,0,3.09.34,3.4,3.4,0,0,0,3.55-2.41A6.46,6.46,0,0,0,29.3,18,3.7,3.7,0,0,0,28.84,16a2.48,2.48,0,0,0-1.28-1.09,7.72,7.72,0,0,0-2.65-.32l-1.46,0c-.05.34-.31,1.91-.79,4.71C22.54,20.06,22.38,21.06,22.2,22.35Zm1.48-8.9q.51,0,1,0a11.39,11.39,0,0,0,2-.13A4.53,4.53,0,0,0,28,12.91a3.42,3.42,0,0,0,1.07-.86,4.27,4.27,0,0,0,.76-1.41A5.51,5.51,0,0,0,30.13,9a2.83,2.83,0,0,0-.36-1.42,2,2,0,0,0-.92-.92,5.6,5.6,0,0,0-2.42-.4c-.46,0-1.33,0-1.84.08l-.07.39-.61,3.2A22.61,22.61,0,0,0,23.68,13.45Z"/><path d="M21.57,7.6c-.32.5-.66,1-1,1.64l-3,4.86q-1.35,2.19-2.67,4.39C14,20,13.34,21,13,21.69c-.71,1.28-1.16,2.07-1.34,2.37h-.72l-1-3.93L8,12.54c-.53-2.11-.87-3.43-1-4L5.81,13.35Q4.6,18.13,4.49,18.58c-.35,1.54-.56,2.52-.62,2.93a3.28,3.28,0,0,0,0,.52.47.47,0,0,0,.23.43,2.5,2.5,0,0,0,1.24.24c.29,0,.56,0,.83.06L6,23.68h-.2l-3.45-.12L0,23.68l.07-1,1.3-.08a1.06,1.06,0,0,0,.33-.19,2.1,2.1,0,0,0,.38-.73c.13-.35.55-1.79,1.26-4.31q1.32-4.75,2.18-8.11a18.24,18.24,0,0,0,.55-2.52.86.86,0,0,0-.33-.67,5.21,5.21,0,0,0-2.35-.37l.1-1a23,23,0,0,0,2.3.09q2.22,0,3.78-.09c.44,1.84.81,3.4,1.13,4.68l2.39,9.33c.49-.77,1.49-2.36,3-4.79q1.57-2.52,3.06-5.07c1.22-2.08,1.88-3,2.29-3.7l.08,1"/><path d="M22,26.72V25.26c0-.17-.15-.24-.24-.35a3.22,3.22,0,0,1-.8-1.72,2.45,2.45,0,0,1,.38-1.62,2.35,2.35,0,0,1,.46-.58.3.3,0,0,0,.1-.31,2.17,2.17,0,0,1,0-.36l0-2a.21.21,0,0,0-.11-.19,2.67,2.67,0,0,1-1.19-2,1.55,1.55,0,0,1,.27-1.2,3.7,3.7,0,0,1,.63-.62l.06,0c.18-.11.31-.25.22-.49h0l0-2.43a4.53,4.53,0,0,1,0-.52.13.13,0,0,0-.06-.11,5.79,5.79,0,0,1-1.25-1.32,6,6,0,0,1-1-2.36,4.44,4.44,0,0,1-.09-1,4,4,0,0,1,.61-2A2.36,2.36,0,0,1,21,3.17a1.6,1.6,0,0,1,.37-.12c.09,0,.12-.07.12-.17,0-.52,0-1,0-1.57A1.31,1.31,0,0,1,24,1.1a2.15,2.15,0,0,1,0,.67v.15c0,.82,0,1.64,0,2.46,0,.45,0,.91,0,1.36s0,.94,0,1.4,0,.89,0,1.34c0,.16,0,.31,0,.47a.35.35,0,0,0,.16.32,4.51,4.51,0,0,1,1.51,2.16,3.22,3.22,0,0,1-.65,3.17,4.6,4.6,0,0,1-1,.82.31.31,0,0,0-.16.32c0,.34,0,.69,0,1a.49.49,0,0,0,.2.45,3,3,0,0,1,.89,1.64A3.41,3.41,0,0,1,24,21.63a1.76,1.76,0,0,1-.31.3.16.16,0,0,0-.06.15c0,.34,0,.69,0,1s0,.86,0,1.29a.22.22,0,0,0,.12.23,1.52,1.52,0,0,1,.66,1.64,1.74,1.74,0,0,1-.85,1.31.1.1,0,0,0,0,.1,1.27,1.27,0,0,1-.18.37.6.6,0,0,1-1,0,1.46,1.46,0,0,1-.24-.78c0-.19,0-.38,0-.57ZM23.61,4.5a1.36,1.36,0,0,1-.85.65,6.51,6.51,0,0,1-.71.23.17.17,0,0,0-.15.2c0,.75,0,1.51.06,2.27,0,1.67.07,3.33.1,5,0,.31,0,.63,0,.94a1.62,1.62,0,0,0,.35-.22,4.16,4.16,0,0,0,1-1,.33.33,0,0,0,.06-.19l0-1.11c0-1.2.05-2.39.08-3.58S23.59,5.61,23.61,4.5Zm.45,5.3c0,.58,0,1.13,0,1.67a2.41,2.41,0,0,1-.71,1.76,9.69,9.69,0,0,1-1.27,1,5,5,0,0,0-.93.8,1.07,1.07,0,0,0-.28.84,3.6,3.6,0,0,0,.13.73,2.19,2.19,0,0,0,.62,1,.37.37,0,0,0,0-.09,2.53,2.53,0,0,1,1.16-1.82l1-.67a3.33,3.33,0,0,0,1.38-1.65A3.41,3.41,0,0,0,24.06,9.8Zm-2.63.25V8.27A.5.5,0,0,0,21.35,8a7.67,7.67,0,0,1-.63-1.12,1.12,1.12,0,0,1,.69-1.63l.2-.07.71-.23a2.49,2.49,0,0,0,.71-.3.58.58,0,0,0,.24-.73.8.8,0,0,0-.61-.49A2.34,2.34,0,0,0,20.42,4a2.6,2.6,0,0,0-.75,1.88A5.31,5.31,0,0,0,21.43,10.05Zm.39,14.34a4.86,4.86,0,0,1,0-.68A1.93,1.93,0,0,1,22.94,22a2.61,2.61,0,0,0,.95-.86,2.83,2.83,0,0,0,.45-2.63,2.31,2.31,0,0,0-.47-.81,7.43,7.43,0,0,1-.1,1.27,2.47,2.47,0,0,1-1.1,1.73,3.42,3.42,0,0,0-1,1A2.25,2.25,0,0,0,21.82,24.39ZM23.63,3.73a.78.78,0,0,1,0-.09c0-.79,0-1.57,0-2.35a.93.93,0,0,0-1.86,0c0,.45,0,.9,0,1.35,0,.1,0,.23,0,.29s.19,0,.28,0h.11a1.77,1.77,0,0,1,1,.36A1.38,1.38,0,0,1,23.63,3.73ZM23.37,15.8a2.77,2.77,0,0,0-1.16,1.14.54.54,0,0,0-.05.21c0,1.11.05,2.21.08,3.32,0,0,0,.05,0,.06a2.44,2.44,0,0,0,.81-.72,1.19,1.19,0,0,0,.22-.52C23.32,18.13,23.34,17,23.37,15.8Zm-.18,6.5a1.74,1.74,0,0,0-.47.31,1.16,1.16,0,0,0-.42.94c0,1.23.05,2.45.08,3.67a1.13,1.13,0,0,0,.12.57c.06.1.13.2.27.18s.18-.11.25-.23h-.24c-.1,0-.11,0-.08-.11s.12-.31.18-.46a3.71,3.71,0,0,0,.28-1.32c0-.57,0-1.14,0-1.71S23.19,22.91,23.19,22.3Zm.49,2.83a7.83,7.83,0,0,1-.14,1.11c-.07.35-.18.69-.29,1.05A1.45,1.45,0,0,0,23.68,25.13Z"/><path class="cls-1" d="M24.06,9.8a3.41,3.41,0,0,1,1.12,3.6,3.33,3.33,0,0,1-1.38,1.65l-1,.67a2.53,2.53,0,0,0-1.16,1.82.37.37,0,0,1,0,.09,2.19,2.19,0,0,1-.62-1,3.6,3.6,0,0,1-.13-.73,1.07,1.07,0,0,1,.28-.84,5,5,0,0,1,.93-.8,9.69,9.69,0,0,0,1.27-1,2.41,2.41,0,0,0,.71-1.76C24.05,10.93,24.06,10.38,24.06,9.8Z"/><path class="cls-2" d="M22.93,3.85a.09.09,0,0,0-.05-.09.88.88,0,0,0-.64,0s-.08.07,0,.12a.41.41,0,0,0,.71,0S22.93,3.86,22.93,3.85Z"/><path class="cls-1" d="M21.82,24.39a2.25,2.25,0,0,1-.17-2.66,3.42,3.42,0,0,1,1-1A2.47,2.47,0,0,0,23.77,19a7.43,7.43,0,0,0,.1-1.27,2.31,2.31,0,0,1,.47.81,2.83,2.83,0,0,1-.45,2.63,2.61,2.61,0,0,1-.95.86,1.93,1.93,0,0,0-1.09,1.7A4.86,4.86,0,0,0,21.82,24.39Z"/><path class="cls-1" d="M23.37,15.8c0,1.17-.05,2.33-.08,3.49a1.19,1.19,0,0,1-.22.52,2.44,2.44,0,0,1-.81.72s0,0,0-.06c0-1.11,0-2.21-.08-3.32a.54.54,0,0,1,.05-.21A2.77,2.77,0,0,1,23.37,15.8Z"/><path class="cls-1" d="M23.19,22.3c0,.61,0,1.23,0,1.84s0,1.14,0,1.71a3.71,3.71,0,0,1-.28,1.32c-.06.15-.11.31-.18.46s0,.12.08.11H23c-.07.12-.13.22-.25.23s-.21-.08-.27-.18a1.13,1.13,0,0,1-.12-.57c0-1.22-.05-2.44-.08-3.67a1.16,1.16,0,0,1,.42-.94A1.74,1.74,0,0,1,23.19,22.3Z"/><path class="cls-1" d="M23.68,25.13a1.45,1.45,0,0,1-.43,2.16c.11-.36.22-.7.29-1.05A7.83,7.83,0,0,0,23.68,25.13Z"/><path d="M22.93,3.85s0,0,0,0a.41.41,0,0,1-.71,0c0-.05,0-.09,0-.12a.88.88,0,0,1,.64,0A.09.09,0,0,1,22.93,3.85Z"/></g></g></svg>