<?xml version="1.0" encoding="UTF-8"?><svg xmlns="http://www.w3.org/2000/svg" xmlns:xlink="http://www.w3.org/1999/xlink" viewBox="0 0 41.83 35.5"><defs><style>.e{fill:none;}.f{fill:#1d1d1b;}.g{clip-path:url(#d);}</style><clipPath id="d"><rect class="e" width="41.83" height="35.5"/></clipPath></defs><g id="a"/><g id="b"><g id="c"><g class="g"><path class="f" d="M20.92,0h17.77c.37,0,.75-.03,1.09,.18,.9,.56,1.62,1.33,1.96,2.45,.09,.28,.02,.63,.06,.94,.07,.51-.12,.82-.48,1.12-2.4,2.09-4.79,4.21-7.18,6.32-2.19,1.93-4.37,3.86-6.55,5.8-1.7,1.5-3.38,3.02-5.08,4.53-.44,.39-.92,.74-1.45,.97-.52,.22-1.02,.17-1.53-.07-.67-.33-1.24-.82-1.81-1.32-2.73-2.39-5.46-4.79-8.19-7.19-2.7-2.38-5.41-4.77-8.11-7.15-.43-.38-.87-.77-1.29-1.17-.08-.07-.14-.21-.14-.33-.01-.69-.03-1.39,0-2.08,.01-.3,.1-.61,.23-.87C.67,1.27,1.28,.58,2.09,.16,2.3,.05,2.55,0,2.78,0,6.38,0,9.98,0,13.58,0,16.03,0,18.47,0,20.92,0h0Z"/><path class="f" d="M39.11,35.5H2.31c.07-.09,.11-.14,.16-.19,1.72-1.72,3.45-3.44,5.17-5.16,1.65-1.64,3.29-3.29,4.94-4.93,.87-.87,1.75-1.74,2.61-2.61,.12-.12,.2-.12,.33-.01,.83,.66,1.64,1.34,2.5,1.95,.61,.44,1.28,.74,2.01,.82,.8,.09,1.54-.14,2.24-.53,1.11-.61,2.08-1.46,3.04-2.32,.12-.11,.24-.2,.35-.32,.12-.13,.21-.1,.33,.02,.67,.69,1.35,1.37,2.02,2.05,3.04,3.07,6.08,6.14,9.11,9.21,.6,.61,1.21,1.22,1.81,1.83,.05,.05,.09,.1,.17,.2"/><path class="f" d="M27.91,20.19c4.64-4.11,9.24-8.18,13.84-12.25,.02,.01,.04,.02,.06,.04v.31c0,5.32,0,10.63,0,15.95,0,3.07,0,6.13,0,9.2,0,.21-.04,.42-.06,.63l-.08,.03c-4.58-4.62-9.15-9.25-13.77-13.91"/><path class="f" d="M13.25,20.62C8.86,25.01,4.47,29.37,.09,33.74c-.02-.01-.04-.03-.06-.04V8.99c4.4,3.88,8.8,7.74,13.22,11.63"/></g></g></g></svg>