<svg xmlns="http://www.w3.org/2000/svg" viewBox="0 0 60.13 60.13"><defs><style>.cls-1{fill:none;stroke:#39807b;stroke-width:2px;}.cls-2{fill:#39807b;}.cls-3{fill:#fff;}</style></defs><g id="Layer_2" data-name="Layer 2"><g id="Layer_1-2" data-name="Layer 1"><circle class="cls-1" cx="30.06" cy="30.06" r="29.06"/><path class="cls-2" d="M28.89,20.8c-1.29-.12-1.77-.82-1.07-1.58,1.87-2,6.77-2.27,11-.7a10.1,10.1,0,0,1,6.94,10.64c-.55,4-4.18,7.76-6.23,8.08-1.14.17-1.61-.53-1.06-1.56,1.64-1.48,1.09-5.6-1.22-9.2s-6-5.47-8.32-5.68"/><path class="cls-2" d="M25.94,23.33c-5.46,0-9.92,3.86-10,8.71s4.38,8.87,9.92,8.88,10-3.89,10-8.82-4.41-8.75-9.91-8.77m0,19.05c-6.41,0-11.62-4.56-11.62-10.22S19.47,21.9,25.88,21.88,37.5,26.45,37.52,32.1,32.33,42.37,26,42.38"/><path class="cls-3" d="M35,32.15c0-4.44-4-8-9-8.06s-9.11,3.64-9.11,8,4.1,8,9.07,8,9.07-3.59,9.07-8m-9-8.82c5.5,0,9.9,3.92,9.91,8.77s-4.41,8.84-10,8.82S15.91,37,16,32s4.49-8.72,10-8.71"/><path class="cls-2" d="M35,32.15c0,4.44-4.08,8-9.07,8s-9.07-3.65-9.07-8,4.14-8,9.11-8,9,3.62,9,8.06"/><polygon class="cls-3" points="21.54 35.31 21.54 29.28 22.44 29.28 22.44 32.27 25.82 29.28 27.04 29.28 24.18 31.73 27.17 35.31 25.98 35.31 23.55 32.26 22.44 33.22 22.44 35.31 21.54 35.31"/><path class="cls-3" d="M27.8,35.31V30.94h.76v.67a1.81,1.81,0,0,1,.53-.62,1.08,1.08,0,0,1,.53-.14,1.85,1.85,0,0,1,.86.23l-.29.69a1.24,1.24,0,0,0-.61-.16.84.84,0,0,0-.49.15.73.73,0,0,0-.31.4,2.65,2.65,0,0,0-.14.87v2.28Z"/></g></g></svg>