<?xml version="1.0" encoding="UTF-8"?><svg xmlns="http://www.w3.org/2000/svg" xmlns:xlink="http://www.w3.org/1999/xlink" viewBox="0 0 51.74 40.9"><defs><style>.e{fill:none;}.f{fill:#1d1d1b;}.g{clip-path:url(#d);}</style><clipPath id="d"><rect class="e" width="51.74" height="40.9"/></clipPath></defs><g id="a"/><g id="b"><g id="c"><g class="g"><path class="f" d="M27.83,32.11h-4.31v3.05h4.31v-3.05Zm-12.04,3.03h4.42v-3.05h-4.42v3.05Zm12.05-8.43h-4.32v3.08h4.32v-3.08Zm-12.05,3.07h4.42v-3.09h-4.42v3.09Zm12.04-8.52h-4.33v3.12h4.33v-3.12Zm-12.02,3.09h4.39v-3.11h-4.39v3.11Zm15.33,10.79h4.44v-3.06h-4.44v3.06Zm-.02-5.36h4.46v-3.08h-4.46v3.08Zm.02-5.43h4.43v-3.11h-4.43v3.11Zm14.74,16.55H5.84c-.01-.26-.03-.52-.03-.77,0-2.16,.08-4.32-.02-6.48-.13-2.98,.88-5.55,2.61-7.89,2.28-3.09,4.57-6.16,6.83-9.27,.24-.34,.38-.82,.4-1.24,.05-1.19,.02-2.39,.02-3.62h6.04v3.04h8.27v-3.02h6.11c0,1.2-.04,2.39,.02,3.58,.02,.44,.17,.95,.42,1.3,2.35,3.19,4.7,6.37,7.11,9.51,1.6,2.08,2.4,4.36,2.3,7.01-.09,2.35-.01,4.7-.02,7.05,0,.26-.02,.52-.03,.81"/><path class="f" d="M51.61,12.36c-3.5,.8-6.94,.75-10.34-.44-.81-.28-1.61-.61-2.39-.97-.2-.1-.43-.41-.43-.62,.01-1.21-.61-2.07-1.63-2.5-1.29-.54-2.65-1.05-4.02-1.24-5.01-.69-10.04-.71-15.04,.24-1.02,.19-2.02,.61-2.96,1.06-.99,.47-1.56,1.31-1.58,2.47,0,.2-.13,.48-.29,.57-3.84,2.2-7.86,3.09-12.21,1.67-.55-.18-.69-.39-.56-.96,.55-2.55,1.4-4.98,2.67-7.25,.16-.28,.47-.55,.77-.66C9.21,1.66,15.03,.54,21,.17,27.01-.21,33,0,38.9,1.21c3.11,.64,6.15,1.64,9.21,2.5,.27,.08,.58,.28,.72,.52,1.42,2.42,2.3,5.05,2.8,7.81,.02,.09,0,.18-.01,.32"/><path class="f" d="M0,13.67c4.65,1.65,8.97,1.06,13.12-1.23,.72,3.04-.85,5.88-3.75,6.77-2.07,.63-4.2,.72-6.33,.35-1.82-.31-2.56-1.07-2.85-2.92-.15-.94-.13-1.9-.19-2.97"/><path class="f" d="M51.74,13.59c-.08,1.09-.1,2.04-.22,2.99-.2,1.5-1.13,2.34-2.59,2.59-2.2,.37-4.4,.31-6.55-.32-2.36-.69-3.73-2.26-3.9-4.76-.04-.59,0-1.18,0-1.88,4.23,2.13,8.58,2.63,13.26,1.38"/></g></g></g></svg>