<svg xmlns="http://www.w3.org/2000/svg" viewBox="0 0 61.81 61.81"><defs><style>.cls-1{fill:none;stroke:#39807b;stroke-width:2px;}.cls-2{fill:#39807b;}</style></defs><g id="Layer_2" data-name="Layer 2"><g id="Layer_1-2" data-name="Layer 1"><circle class="cls-1" cx="30.91" cy="30.91" r="29.91"/><path class="cls-2" d="M35.59,31.61c0-1,.06-3,.06-4.48V11.54c0-.19,0-.75,0-1.25a1,1,0,0,1,1-1,.83.83,0,0,1,.89.34,8.6,8.6,0,0,1,.89,1.51,23.27,23.27,0,0,1,2,7.07c.49,2.46.15,7.42-.75,11.08a7.67,7.67,0,0,1-1.33,3.1,1.64,1.64,0,0,0-.26.9c.09,3.69.29,11.23.44,16.85a4.34,4.34,0,0,0,0,1A1.61,1.61,0,0,1,37,52.56a1.53,1.53,0,0,1-2.05-1.51c.1-2.71.3-8.25.44-12.38.09-2.63.18-5.27.24-7.06"/><path class="cls-2" d="M24,38.32c.07-2.8.24-8.51.38-12.77a1,1,0,0,0-.31-.84,10.8,10.8,0,0,0-1.4-1.43,4.51,4.51,0,0,1-1.37-3.63c.11-1.1.37-3.36.56-5,.13-1.06.38-3.25.57-4.87a1,1,0,0,1,0-.22A.59.59,0,0,1,23,9.24a.36.36,0,0,1,.24.34c0,3.05,0,6.1,0,7.62v1.58a.26.26,0,0,0,0,.28.49.49,0,0,0,.37.28,1.24,1.24,0,0,0,.37-.27c0-.06,0-.17,0-.21V9.75a.17.17,0,0,1,0-.2.62.62,0,0,1,.4-.29.35.35,0,0,1,.42.31c0,.2,0,.4,0,.5v8.82a.17.17,0,0,0,0,.2.58.58,0,0,0,.41.25.92.92,0,0,0,.33-.27,2.35,2.35,0,0,0,0-.28v-9a.72.72,0,0,1,0-.25c0-.2.18-.35.45-.34a.4.4,0,0,1,.41.34,1.89,1.89,0,0,1,0,.24v9a.23.23,0,0,0,0,.26.54.54,0,0,0,.37.27.74.74,0,0,0,.36-.25c.06-.08,0-.2,0-.26V17.26c0-1.17,0-4.58,0-7.63-.23-.22-.1-.4.28-.4a.44.44,0,0,1,.55.4c.16,1.37.48,4.18.73,6.27.08.78.27,2.36.41,3.55A4.89,4.89,0,0,1,28.9,22a3.92,3.92,0,0,1-.61.85l-1.75,1.79a1.23,1.23,0,0,0-.33.9c.09,3.22.28,9.82.42,14.73.07,2.38.22,7.26.33,10.89.05.76-.69,1.38-1.65,1.39a1.5,1.5,0,0,1-1.7-1.41c.08-2.77.24-8.44.37-12.67v-.18"/></g></g></svg>