<?xml version="1.0" encoding="UTF-8"?><svg xmlns="http://www.w3.org/2000/svg" xmlns:xlink="http://www.w3.org/1999/xlink" viewBox="0 0 33.51 40.59"><defs><style>.e{fill:none;}.f{fill:#1d1d1b;}.g{clip-path:url(#d);}</style><clipPath id="d"><rect class="e" width="33.51" height="40.59"/></clipPath></defs><g id="a"/><g id="b"><g id="c"><g class="g"><path class="f" d="M21.53,10.05c0-1.13,.13-2.19-.02-3.21-.41-2.68-3.24-4.49-5.85-3.8-3.02,.8-4.29,3.39-3.6,7.01h9.47ZM3.01,37.64H30.51c-.74-8.23-1.47-16.4-2.21-24.6h-3.7c-.05,.11-.09,.16-.09,.21-.01,.66-.02,1.32-.02,1.98-.02,1.19-.49,1.77-1.44,1.76-.93-.01-1.41-.61-1.42-1.8,0-.71,0-1.42,0-2.17H11.9c0,.82,.02,1.59,0,2.36-.03,1.03-.55,1.6-1.43,1.6-.9,0-1.41-.56-1.43-1.59-.02-.77,0-1.55,0-2.37h-3.82c-.73,8.18-1.47,16.34-2.21,24.6M15.77,0h1.98c.08,.04,.15,.11,.23,.12,4.1,.85,6.49,3.77,6.51,7.95,0,.65,0,1.3,0,2.01,1.69,0,3.25,0,4.81,0,1.22,0,1.7,.49,1.8,1.74,.25,2.96,.5,5.92,.77,8.88,.53,5.95,1.06,11.9,1.62,17.85,.09,.92-.16,1.57-.95,2.03H.98c-.68-.43-1.05-.98-.97-1.85,.36-3.8,.66-7.6,1-11.4,.46-5.08,.94-10.17,1.39-15.25,.14-1.62,.49-2,2.09-2,1.49,0,2.98,0,4.55,0,0-.94-.03-1.74,0-2.55,.11-2.83,1.39-5.01,3.82-6.43C13.74,.59,14.8,.36,15.77,0"/></g></g></g></svg>