<svg xmlns="http://www.w3.org/2000/svg" xmlns:xlink="http://www.w3.org/1999/xlink" viewBox="0 0 17.01 20.48"><defs><style>.cls-1{fill:none;}.cls-2{clip-path:url(#clip-path);}.cls-3{fill:#2b2b2a;}</style><clipPath id="clip-path"><rect class="cls-1" width="17.01" height="20.48"/></clipPath></defs><g id="Layer_2" data-name="Layer 2"><g id="Layer_1-2" data-name="Layer 1"><g class="cls-2"><path class="cls-3" d="M7.22,11.7a5.14,5.14,0,0,0,5.29-5A5.17,5.17,0,0,0,7.13,1.8a5.14,5.14,0,0,0-5.19,5A5.14,5.14,0,0,0,7.22,11.7m4.64.17,3.55,5,1.38,1.93A1,1,0,0,1,16.84,20,1.1,1.1,0,0,1,15,19.94c-.66-.91-1.3-1.83-1.95-2.74-.91-1.28-1.83-2.55-2.72-3.84-.21-.32-.39-.35-.74-.23A7.33,7.33,0,0,1,.5,9.2C-1.38,4.77,2.29-.15,7.37,0A7.2,7.2,0,0,1,14,4.33a6.47,6.47,0,0,1-1.88,7.41,1.06,1.06,0,0,1-.22.13"/></g></g></g></svg>