<?xml version="1.0" encoding="UTF-8"?><svg xmlns="http://www.w3.org/2000/svg" viewBox="0 0 319.95 319.97"><g id="a"/><g id="b"><g id="c"><path d="M310.58,265.37c12.5,12.5,12.5,32.8,0,45.2-6.2,6.2-14.4,9.4-22.6,9.4s-16.4-3.1-22.6-9.4l-105.4-105.3-105.4,105.3c-6.2,6.3-14.4,9.4-22.6,9.4s-16.4-3.1-22.6-9.4c-12.5-12.5-12.5-32.8,0-45.2l105.4-105.4L9.38,54.58C-3.12,42.08-3.12,21.78,9.38,9.38s32.8-12.5,45.2,0l105.4,105.4L265.37,9.38c12.5-12.5,32.8-12.5,45.2,0s12.5,32.7,0,45.2l-105.4,105.4,105.4,105.4Z"/></g></g></svg>